# xmcd
#
# Track frame offsets:
# 8182
# 23275
# 35952
# 52747
# 71972
# 83435
# 99372
# 117882
# 136570
# 151467
# 164255
# 184565
#
# Disc length: 2723 seconds
#
#
# Revision: 7
# Processed by: cddbd v1.5.1PL2 Copyright (c) Steve Scherf et al.
# Submitted via: FreeRIP 2.51 
#
DISCID=8f0a360c
DTITLE=Lit - A Place in the Sun
DYEAR=1999
DGENRE=Blues
TTITLE0=Four
TTITLE1=My Own Worst Enemy
TTITLE2=Down
TTITLE3=Miserable
TTITLE4=No Big Thing
TTITLE5=Zip-Lock
TTITLE6=Lovely Day
TTITLE7=Perfect One
TTITLE8=Qicksand
TTITLE9=Happy
TTITLE10=The Best is Yet to Come Undone
TTITLE11=A Place in the Sun
EXTD=
EXTT0=
EXTT1=
EXTT2=
EXTT3=
EXTT4=
EXTT5=
EXTT6=
EXTT7=
EXTT8=
EXTT9=
EXTT10=
EXTT11=
PLAYORDER=
